REM MD5 0fa9c450f8ae43ba15d63d274ca0bc01
FILE "Miracle Jim no Bassing Beat (Japan).bin" BINARY
  TRACK 01 MODE2/2352
    INDEX 01 00:00:00
  TRACK 02 AUDIO
    INDEX 00 28:07:13
    INDEX 01 28:09:13
  TRACK 03 AUDIO
    INDEX 00 30:39:14
    INDEX 01 30:41:14
  TRACK 04 AUDIO
    INDEX 00 32:41:15
    INDEX 01 32:43:15
  TRACK 05 AUDIO
    INDEX 00 35:12:65
    INDEX 01 35:14:65
REM LEADOUT 36:21:64
